<svg width="1111" height="253" viewBox="0 0 1111 253" fill="none" xmlns="http://www.w3.org/2000/svg">
<path d="M164.51 86.8535V253H130.334V245.686C130.334 241.61 130.127 238.37 129.919 238.37C129.709 238.372 126.81 240.044 123.499 242.028C103.2 254.358 74.0995 256.448 51.3159 247.253C33.0889 239.938 16.9325 224.682 7.61183 206.082C-2.53731 185.706 -2.53724 154.148 7.61183 133.771C19.418 110.365 40.2345 93.7501 64.5718 88.6299C84.3523 84.3456 107.861 88.1072 124.224 98.3477C127.019 100.019 129.504 101.481 129.816 101.482C130.127 101.482 130.334 98.1387 130.334 94.168V86.8535H164.51ZM43.5698 127.319C42.3155 125.149 39.5392 124.406 37.3687 125.66C35.1983 126.915 34.4562 129.691 35.7105 131.861L87.6216 221.692C88.8759 223.863 91.6523 224.605 93.8228 223.351C95.9933 222.096 96.7363 219.32 95.4819 217.149L43.5698 127.319ZM36.6323 156.785C35.378 154.615 32.6017 153.872 30.4312 155.126C28.2608 156.38 27.5178 159.157 28.772 161.327L59.271 214.103C60.5254 216.273 63.3017 217.016 65.4722 215.762C67.6426 214.507 68.3847 211.731 67.1304 209.561L36.6323 156.785ZM74.5191 139.399C73.2647 137.229 70.4884 136.487 68.3179 137.741C66.1473 138.996 65.4044 141.772 66.6587 143.942L93.9126 191.104C95.167 193.274 97.9434 194.016 100.114 192.762C102.284 191.507 103.026 188.731 101.772 186.561L74.5191 139.399ZM111.583 118.002C110.328 115.832 107.552 115.089 105.381 116.343C103.211 117.597 102.468 120.374 103.722 122.545L130.976 169.706C132.23 171.876 135.007 172.619 137.177 171.364C139.348 170.11 140.091 167.334 138.836 165.163L111.583 118.002ZM100.275 142.503C99.0206 140.333 96.2442 139.59 94.0737 140.844C91.9034 142.098 91.1606 144.874 92.4146 147.045L105.393 169.503C106.647 171.673 109.424 172.416 111.594 171.162C113.765 169.908 114.507 167.131 113.253 164.961L100.275 142.503Z" fill="white"/>
<path d="M357.51 253H321.579L321.579 87H357.51V253ZM253.602 253C244.323 253 235.799 251.701 228.03 249.104C220.045 246.507 213.248 242.502 207.637 237.091C201.81 231.897 197.386 225.403 194.365 217.611C191.128 209.819 189.51 200.621 189.51 190.015V87H225.44V182.872C225.44 196.075 228.677 205.815 235.151 212.092C241.41 218.585 251.336 221.832 264.932 221.832C275.29 221.832 284.785 219.559 293.417 215.014C301.833 210.685 308.739 204.949 314.134 197.807C319.529 190.881 322.658 183.197 323.521 174.755L323.845 192.287C322.766 200.296 320.392 207.871 316.724 215.014C313.055 222.373 308.2 228.866 302.157 234.494C296.115 240.338 288.993 244.883 280.793 248.13C272.593 251.377 263.529 253 253.602 253Z" fill="white"/>
<path d="M447.666 251.236C423.108 246.15 402.104 229.646 390.191 206.396C379.949 186.156 379.949 154.81 390.191 134.57C399.596 116.094 415.898 100.94 434.29 93.6745C457.28 84.5406 486.645 86.6165 507.127 98.8643C510.471 100.836 513.397 102.497 513.606 102.497C513.815 102.497 514.024 99.2795 514.024 95.2315V0H531.267H548.51V170.483V253H531.267H514.024V245.734C514.024 241.79 513.815 238.469 513.502 238.469C513.188 238.469 510.68 239.922 507.859 241.583C491.348 251.754 467.626 255.491 447.666 251.236ZM502.947 224.041C510.576 220.408 516.741 214.181 520.399 206.5C523.639 199.753 524.37 183.665 521.966 174.116C512.457 137.165 471.388 106.338 438.784 111.735C424.989 113.915 415.898 120.142 410.673 130.833C396.461 159.896 416.838 202.14 453.936 220.512C466.267 226.636 472.433 227.985 486.018 227.674C495.005 227.363 496.991 226.947 502.947 224.041Z" fill="white"/>
<path d="M573.51 170V253H591.01H608.51V170V87H591.01H573.51V170Z" fill="white"/>
<path d="M698.676 88.8004C666.23 95.6907 639.834 123.356 634.618 155.929C628.984 190.902 645.155 225.145 675.724 242.475C700.867 256.882 733.835 256.464 759.5 241.431C767.116 236.838 783.182 220.76 787.773 213.139C803.422 186.413 803.422 153.632 787.773 126.906C783.182 119.285 767.116 103.207 759.5 98.6138C741.555 88.174 718.811 84.4156 698.676 88.8004ZM716.933 115.84C729.036 119.702 740.094 126.697 750.84 137.554C761.273 148.203 767.637 157.912 771.915 170.336C774.314 177.226 774.732 180.045 774.732 189.858C774.732 204.265 772.436 210.842 764.82 218.672C755.014 228.799 739.26 232.453 721.941 228.59C695.442 222.639 670.403 199.463 661.013 172.006C657.153 160.835 656.944 144.967 660.492 135.884C668.316 115.735 691.06 107.697 716.933 115.84Z" fill="white"/>
<path d="M824.51 90.2063H860.484V136.831C861.717 132.657 863.337 128.613 865.346 124.699C869.019 117.323 873.88 110.815 879.93 105.175C885.979 99.3176 893.11 94.7616 901.32 91.5076C907.263 89.1521 913.66 87.6504 920.51 87V117.935C919.432 117.89 918.329 117.865 917.2 117.865C906.83 117.865 897.323 120.143 888.68 124.699C880.517 128.902 873.773 134.428 868.449 141.277L867.438 142.597C864.326 146.734 862.008 151.136 860.484 155.805V253H824.51V90.2063Z" fill="white"/>
<path d="M1010.27 88.7748C985.864 93.8906 964.986 110.491 953.144 133.877C942.965 154.235 942.965 185.765 953.144 206.123C962.493 224.707 978.697 239.95 996.978 247.258C1019.83 256.445 1049.02 254.357 1069.38 242.038C1072.7 240.054 1075.61 238.384 1075.82 238.384C1076.02 238.384 1076.23 241.62 1076.23 245.692V253H1093.37H1110.51V170V87H1093.37H1076.23V94.3082C1076.23 98.2755 1076.02 101.616 1075.71 101.616C1075.4 101.616 1072.91 100.155 1070.1 98.4843C1053.69 88.2528 1030.11 84.4943 1010.27 88.7748ZM1065.22 116.128C1072.8 119.782 1078.93 126.047 1082.57 133.772C1085.79 140.558 1086.52 156.741 1084.13 166.346C1074.67 203.513 1033.85 234.521 1001.44 229.092C987.734 226.899 978.697 220.635 973.503 209.882C959.377 180.649 979.632 138.157 1016.51 119.678C1028.76 113.518 1034.89 112.161 1048.39 112.474C1057.33 112.787 1059.3 113.205 1065.22 116.128Z" fill="white"/>
</svg>
